<?xml version="1.0" standalone="no"?>
<!DOCTYPE svg PUBLIC "-//W3C//DTD SVG 20010904//EN"
 "http://www.w3.org/TR/2001/REC-SVG-20010904/DTD/svg10.dtd">
<svg version="1.0" xmlns="http://www.w3.org/2000/svg"
 width="640.000000pt" height="640.000000pt" viewBox="0 0 640.000000 640.000000"
 preserveAspectRatio="xMidYMid meet">

<g transform="translate(0.000000,640.000000) scale(0.100000,-0.100000)"
fill="#000000" stroke="none">
<path d="M0 3200 l0 -3200 3200 0 3200 0 0 3200 0 3200 -3200 0 -3200 0 0
-3200z m3490 1929 c737 -52 1419 -295 1912 -682 55 -43 64 -55 55 -67 -7 -8
-101 -122 -211 -252 l-199 -237 -46 38 c-291 242 -769 437 -1261 515 -320 51
-723 51 -1065 0 -468 -69 -911 -246 -1232 -491 -46 -35 -85 -63 -88 -63 -3 0
-224 255 -387 448 l-37 44 32 28 c57 50 256 188 350 243 611 359 1400 532
2177 476z m-647 -1045 c22 -8 33 -50 18 -68 -8 -10 -5 -15 14 -24 29 -13 34
-52 9 -73 -13 -11 -27 -7 -90 24 -41 20 -76 37 -79 37 -2 0 -7 -16 -11 -35 -5
-28 -13 -39 -40 -50 -19 -8 -34 -18 -34 -22 0 -5 33 -9 73 -9 39 -1 110 -11
157 -24 94 -24 315 -102 371 -131 35 -17 42 -17 217 1 l181 18 48 40 c80 68
164 90 163 44 0 -9 -18 -41 -39 -71 -32 -43 -38 -60 -34 -85 7 -44 -25 -82
-74 -89 -37 -5 -83 -16 -132 -32 -14 -4 -21 -3 -18 2 9 15 126 55 138 48 5 -4
23 -1 40 5 26 11 29 17 29 59 0 36 7 57 35 98 38 57 43 73 21 73 -29 0 -64
-19 -119 -64 l-56 -45 -180 -17 -180 -17 -143 56 c-202 79 -317 110 -408 111
-41 1 -82 -1 -90 -4 -11 -4 -16 3 -18 23 -3 25 2 30 37 44 33 13 41 21 41 42
0 53 12 55 88 17 39 -20 78 -36 87 -36 27 0 17 39 -16 55 -29 15 -30 18 -15
34 33 36 21 48 -63 61 -100 15 -121 7 -121 -50 0 -31 -4 -40 -17 -40 -10 0
-30 -14 -44 -31 l-25 -31 -52 26 c-28 14 -54 26 -56 26 -7 0 -37 -58 -35 -66
1 -4 -86 -168 -98 -183 -2 -3 -8 0 -14 6 -8 8 -4 23 10 52 18 34 19 41 6 41
-10 0 -15 10 -15 35 0 38 -20 55 -64 55 -23 0 -26 4 -26 35 0 22 5 35 13 35
16 0 103 -54 135 -83 20 -19 24 -19 38 -5 15 14 13 19 -24 56 -59 59 -174 91
-202 57 -10 -13 -9 -15 9 -15 18 0 21 -6 21 -40 0 -36 -2 -40 -25 -40 -20 0
-25 -5 -25 -25 0 -18 5 -25 20 -25 17 0 20 -7 20 -50 0 -38 -4 -50 -15 -50 -9
0 -15 -9 -15 -25 0 -24 3 -25 55 -25 30 0 55 -1 55 -3 0 -2 -17 -46 -38 -98
-37 -89 -40 -94 -68 -93 -16 1 -45 9 -64 18 -24 11 -27 14 -10 11 90 -20 82
-24 118 59 17 41 32 79 32 83 0 5 -20 7 -44 5 l-44 -4 -9 49 c-13 76 -10 224
6 261 13 30 16 32 68 32 64 0 107 -16 155 -58 l35 -31 11 24 c14 31 21 31 84
-1 53 -27 53 -27 79 19 5 9 16 17 23 17 15 0 26 21 26 50 0 32 29 41 110 36
42 -3 84 -8 93 -12z m-424 -296 c-22 -70 -49 -127 -101 -210 -39 -62 -127
-212 -196 -333 -68 -121 -127 -222 -130 -225 -16 -16 26 66 174 332 90 163
164 299 164 302 0 9 113 236 116 233 2 -1 -11 -46 -27 -99z m106 72 c11 -17
-57 -140 -77 -140 -23 0 -24 -1 17 80 34 68 47 81 60 60z m210 -65 c42 -26 55
-30 55 -17 0 5 -12 13 -27 19 -27 10 -26 11 15 12 50 1 168 -27 266 -64 111
-42 316 -137 316 -146 0 -5 -2 -9 -4 -9 -7 0 -141 52 -183 71 -60 27 -191 56
-313 69 -58 6 -126 15 -152 21 -33 8 -52 7 -67 -1 -25 -13 -42 -5 -34 16 5 12
67 53 83 53 3 0 23 -11 45 -24z m800 -126 c-31 -14 -61 -18 -130 -17 l-90 1
85 7 c47 4 96 12 110 18 46 19 68 12 25 -9z m855 -5 c30 -9 90 -34 132 -56
l77 -40 73 12 c53 9 73 10 76 1 2 -6 16 -11 30 -11 24 -1 25 -2 8 -11 -13 -8
-25 -8 -42 2 -19 10 -37 10 -88 1 l-64 -12 -58 35 c-124 75 -289 103 -414 70
-109 -28 -195 -81 -294 -178 l-88 -87 -65 20 c-81 25 -91 24 -34 -1 24 -11 42
-22 39 -24 -3 -3 -52 17 -109 44 -57 27 -122 56 -143 65 -22 9 -37 19 -33 22
3 3 14 1 25 -5 27 -14 32 -14 32 3 0 8 7 17 16 20 14 5 15 4 5 -8 -9 -11 -8
-15 4 -20 9 -3 15 0 15 9 0 8 5 15 11 15 7 0 10 -12 7 -30 -3 -18 0 -31 9 -34
8 -4 13 3 14 17 l0 22 9 -22 c5 -12 17 -24 27 -27 10 -2 51 -15 91 -26 l73
-22 87 84 c118 114 228 172 357 191 47 7 155 -3 215 -19z m-2320 9 c0 -5 -46
-8 -102 -8 -108 0 -188 -15 -250 -46 -49 -25 -53 -34 -29 -73 12 -18 21 -37
21 -42 0 -5 -16 -19 -36 -32 -54 -35 -35 -36 37 -3 92 43 171 61 269 61 95 0
190 -22 190 -45 0 -11 -7 -11 -37 -2 -21 6 -92 11 -158 11 -116 1 -122 0 -186
-31 -36 -18 -75 -33 -85 -34 -18 0 -18 -1 -1 -8 16 -6 12 -12 -25 -41 -126
-102 -180 -210 -182 -365 -2 -238 119 -431 314 -500 118 -41 266 -40 367 5 53
23 193 129 225 170 22 28 27 30 52 21 25 -10 28 -9 42 24 50 121 58 324 16
440 -29 79 -83 158 -153 225 l-58 55 51 97 c28 54 55 98 59 98 5 0 33 -11 64
-25 52 -23 57 -28 85 -90 35 -78 34 -75 15 -75 -18 0 -19 -13 -4 -78 l10 -50
35 8 c31 7 36 5 48 -18 35 -70 77 -184 72 -197 -3 -8 -1 -15 4 -15 6 0 10 -9
10 -20 0 -23 -4 -24 -28 -9 -12 7 -25 7 -44 0 -27 -10 -28 -13 -28 -80 0 -38
5 -73 10 -76 6 -4 10 8 10 29 0 34 2 36 33 36 17 0 38 -4 45 -8 18 -12 4 -41
-24 -48 -28 -7 -22 -24 7 -24 18 0 20 -4 14 -32 -6 -26 -5 -30 9 -25 11 5 19
0 25 -16 5 -12 27 -37 49 -54 41 -33 41 -33 149 -32 73 1 95 4 68 8 -116 20
-248 140 -270 246 -4 21 2 14 19 -22 34 -72 107 -147 175 -179 53 -26 69 -28
271 -37 148 -7 330 -6 585 2 204 6 418 11 477 11 61 0 109 4 113 10 10 16
-445 12 -681 -6 -349 -27 -471 -11 -558 69 -45 42 -32 39 24 -4 70 -55 120
-63 344 -55 110 4 228 12 261 17 77 11 346 28 498 30 64 0 117 5 117 9 0 4
-13 24 -30 45 -23 28 -30 48 -30 79 0 55 -34 124 -66 136 -35 14 -36 13 -24
-10 6 -11 20 -20 30 -20 21 0 22 -1 25 -70 2 -54 -9 -80 -35 -80 -10 0 -20 -4
-22 -9 -1 -5 -19 -11 -38 -13 l-35 -3 1 63 1 62 -32 0 c-29 0 -31 2 -31 36 0
35 0 35 37 29 31 -5 37 -3 42 14 4 17 13 21 44 21 l38 1 -24 19 c-13 12 -38
20 -59 20 -27 0 -33 3 -25 11 17 17 95 2 134 -24 56 -38 74 -80 73 -171 -1
-59 2 -73 8 -55 14 35 12 133 -2 160 -18 35 -51 69 -82 85 -45 23 -33 34 37
34 64 0 65 -1 89 -37 33 -50 56 -117 56 -162 0 -48 -25 -122 -51 -150 -12 -12
-18 -25 -14 -29 4 -4 50 -9 102 -12 63 -3 98 -9 100 -17 3 -9 -18 -11 -84 -8
-48 2 -74 2 -58 -1 65 -9 135 -28 135 -36 0 -4 -36 -8 -80 -8 -67 0 -83 -3
-100 -20 -19 -19 -33 -20 -320 -20 -253 0 -300 -2 -300 -14 0 -8 24 -35 53
-61 198 -176 499 -175 676 2 90 91 161 255 161 375 0 35 4 48 14 48 8 0 17 -4
20 -9 3 -5 15 -11 26 -14 16 -4 10 7 -24 43 -43 46 -56 75 -71 163 -4 23 -2
37 5 37 5 0 10 -6 11 -12 0 -7 5 2 11 21 l9 34 20 -32 c19 -31 20 -31 44 -15
14 9 25 19 25 23 0 3 -11 49 -25 101 -30 115 -30 116 -5 123 21 6 28 -9 8 -16
-10 -3 -7 -30 14 -112 26 -107 26 -108 7 -124 -19 -16 -18 -19 46 -145 36 -71
65 -132 65 -136 0 -18 -68 -6 -122 21 l-58 29 0 -28 c0 -16 -9 -64 -20 -106
-67 -264 -246 -416 -490 -416 -152 0 -270 48 -375 153 l-70 70 -355 9 c-195 5
-406 11 -469 15 l-114 5 -49 49 c-26 26 -48 45 -48 42 0 -3 -7 0 -16 8 -10 8
-13 21 -9 36 5 21 2 23 -32 23 -57 0 -83 30 -83 97 0 62 15 84 73 102 23 8 37
19 37 29 0 9 -16 58 -37 108 l-37 90 -40 0 -40 -1 -14 68 c-12 60 -12 70 1 80
13 10 11 19 -9 64 -18 40 -32 56 -57 67 -77 32 -71 34 -121 -59 l-45 -86 63
-63 c140 -139 199 -321 166 -516 -12 -71 -44 -176 -60 -193 -4 -4 -18 -3 -32
4 -24 10 -29 8 -67 -34 -52 -56 -170 -138 -236 -163 -70 -27 -257 -27 -335 0
-111 37 -207 115 -267 216 -68 116 -93 311 -55 437 26 84 67 150 133 213 l51
49 -39 16 c-37 16 -38 17 -17 33 11 9 31 24 43 32 l24 16 -23 43 c-18 36 -19
45 -8 53 42 28 100 53 148 64 60 14 260 18 260 7z m681 -50 c134 -5 141 -6
162 -42 l18 -30 -28 -8 c-15 -4 -62 -8 -103 -8 -113 0 -179 41 -196 120 l-6
30 25 -30 c24 -28 27 -29 128 -32z m984 27 c3 -5 1 -10 -4 -10 -6 0 -11 5 -11
10 0 6 2 10 4 10 3 0 8 -4 11 -10z m629 -26 c104 -27 165 -63 250 -147 59 -58
76 -81 68 -89 -7 -7 -13 -10 -15 -7 -85 122 -171 169 -371 204 -168 28 -275
-9 -421 -147 -47 -44 -85 -75 -85 -68 0 21 174 201 214 222 89 46 251 60 360
32z m-1002 -67 c5 -7 7 -19 5 -27 -3 -20 -161 -26 -237 -9 l-55 12 49 13 c27
7 54 18 60 24 14 15 168 3 178 -13z m1328 -12 c-43 -16 -60 -18 -60 -6 0 9 32
17 75 19 11 0 5 -5 -15 -13z m-1943 -77 c1 -45 -20 -98 -38 -98 -10 0 -59 96
-59 118 0 6 5 12 10 12 6 0 10 -4 10 -10 0 -5 14 -10 30 -10 20 0 30 5 30 15
0 8 4 15 9 15 4 0 8 -19 8 -42z m168 32 c-3 -5 -24 -10 -46 -10 -21 0 -39 5
-39 10 0 6 21 10 46 10 27 0 43 -4 39 -10z m180 0 c-3 -5 -35 -10 -71 -10 -36
0 -64 4 -64 10 0 6 30 10 71 10 44 0 68 -4 64 -10z m311 -28 c18 -9 49 -29 70
-43 22 -14 72 -38 111 -55 40 -16 73 -35 73 -41 0 -7 -1 -13 -2 -13 -9 1 -81
31 -127 53 -41 19 -59 23 -77 16 -19 -7 -24 -5 -25 9 0 14 -2 14 -9 -3 -5 -11
-9 -71 -9 -134 -1 -121 9 -151 50 -151 10 0 21 -5 25 -11 10 -17 -125 -6 -153
12 -13 7 -27 26 -34 40 -6 15 -19 35 -30 45 -22 20 -26 93 -7 112 7 7 31 12
54 12 24 0 45 4 48 8 3 5 0 25 -6 45 l-11 37 -59 0 c-45 0 -58 3 -58 15 0 9
12 20 28 26 15 6 38 17 52 24 35 18 60 18 96 -3z m1334 -39 c6 -32 14 -68 17
-80 10 -43 -12 -22 -44 42 -40 78 -41 95 -9 95 22 0 26 -6 36 -57z m-2371 -67
c81 -102 76 -111 -12 -24 -48 47 -80 86 -74 90 18 11 36 -2 86 -66z m709 63
c90 3 101 -4 83 -51 l-10 -26 -93 35 c-69 26 -102 34 -131 30 -22 -3 -36 -2
-31 3 14 13 47 19 74 12 14 -3 62 -4 108 -3z m-208 -4 c0 -17 -35 -55 -51 -55
-19 0 -24 16 -13 44 6 15 64 24 64 11z m80 -25 c0 -5 -4 -10 -10 -10 -5 0 -10
5 -10 10 0 6 5 10 10 10 6 0 10 -4 10 -10z m1432 -25 c30 -14 70 -39 89 -55
l34 -30 -75 34 c-41 18 -98 39 -127 47 -29 7 -55 19 -58 27 -8 22 70 9 137
-23z m-2297 11 c23 -10 33 -20 29 -29 -4 -12 -22 -14 -88 -10 -53 4 -96 1
-121 -7 -34 -11 -40 -11 -52 6 -7 10 -13 21 -13 24 0 28 189 39 245 16z m1743
-62 c136 -59 185 -84 179 -91 -6 -5 -286 113 -301 128 -21 19 19 7 122 -37z
m-878 16 c0 -5 -4 -10 -10 -10 -5 0 -10 5 -10 10 0 6 5 10 10 10 6 0 10 -4 10
-10z m100 0 c0 -5 -4 -10 -10 -10 -5 0 -10 5 -10 10 0 6 5 10 10 10 6 0 10 -4
10 -10z m-1240 -11 c0 -6 -23 -32 -50 -59 -59 -57 -97 -133 -112 -223 -9 -54
-7 -75 10 -143 11 -43 18 -81 15 -84 -3 -3 -13 5 -23 17 -18 23 -40 122 -40
184 0 56 29 150 62 201 46 73 138 144 138 107z m1305 -28 c-8 -14 -115 -52
-134 -48 -29 6 70 54 117 56 13 1 21 -3 17 -8z m440 -7 c9 -9 14 -23 11 -31
-3 -8 -6 -19 -6 -24 0 -17 -44 -27 -67 -16 -25 11 -32 54 -11 75 17 17 54 15
73 -4z m-1224 -132 c13 -35 23 -86 25 -132 l3 -75 -10 73 c-14 106 -43 174
-90 217 -23 21 -37 40 -33 47 12 19 81 -67 105 -130z m-257 108 c6 -6 3 -23
-7 -46 -17 -34 -19 -35 -57 -29 -113 19 -220 -79 -220 -202 0 -42 47 -129 85
-159 67 -51 143 -45 238 20 62 41 65 42 95 27 18 -8 32 -19 32 -23 0 -19 -97
-112 -135 -129 -85 -39 -220 -14 -302 56 -70 60 -109 190 -84 282 20 74 125
202 138 167 2 -6 10 -20 18 -30 13 -17 13 -16 5 15 -11 40 -5 47 50 57 19 3
40 7 45 9 16 7 89 -5 99 -15z m1570 4 c27 -26 12 -58 -25 -52 -39 5 -36 67 3
68 4 0 14 -7 22 -16z m574 -11 c36 -53 36 -53 -12 -53 l-46 0 0 40 c0 33 3 40
19 40 11 0 28 -12 39 -27z m122 -2 c43 -20 37 -37 -10 -33 -33 3 -80 35 -80
54 0 11 45 0 90 -21z m-1390 9 c0 -5 -7 -10 -15 -10 -8 0 -15 5 -15 10 0 6 7
10 15 10 8 0 15 -4 15 -10z m754 -17 c-18 -73 -46 -103 -98 -102 -36 0 -38 1
-17 10 15 6 21 15 17 24 -4 11 1 15 17 15 31 0 47 18 47 52 0 21 5 28 20 28
17 0 19 -4 14 -27z m-1505 -52 c36 -26 78 -105 86 -162 7 -47 -9 -154 -24
-164 -5 -2 -24 6 -42 18 -30 21 -34 28 -31 63 5 62 -7 120 -35 160 -25 38 -25
39 -8 71 10 18 20 33 23 33 2 0 16 -9 31 -19z m1681 -11 c-22 -31 -40 -115
-40 -187 0 -24 -4 -43 -10 -43 -15 0 -12 98 5 164 19 72 32 96 51 96 12 0 11
-6 -6 -30z m-300 10 c13 -9 12 -12 -4 -25 -17 -13 -106 -22 -106 -11 0 2 -3
11 -6 20 -6 14 -3 15 86 24 8 1 22 -3 30 -8z m-320 -26 c6 -14 10 -27 10 -30
0 -2 -22 -4 -50 -4 -27 0 -50 4 -50 9 0 9 59 51 73 51 4 0 12 -12 17 -26z
m1296 8 c38 -25 58 -137 40 -219 -12 -54 -22 -37 -24 42 -2 66 -11 106 -37
168 -7 18 2 22 21 9z m-548 -117 c3 -115 -1 -125 -45 -125 -29 0 -38 32 -30
106 6 56 43 137 61 131 7 -2 12 -47 14 -112z m-1988 95 c0 -6 -14 -39 -32 -73
l-31 -62 -29 64 c-22 50 -26 66 -16 73 19 11 108 10 108 -2z m-109 -102 c14
-54 55 -98 92 -98 12 0 47 -12 77 -26 l55 -25 -37 -34 c-76 -70 -167 -69 -239
4 -60 60 -64 138 -11 219 23 37 28 41 39 26 6 -9 17 -38 24 -66z m217 49 c13
-13 27 -39 32 -58 11 -38 3 -119 -12 -119 -14 0 -101 51 -115 67 -9 12 -5 27
20 74 18 32 37 59 43 59 6 0 20 -11 32 -23z m1121 17 c36 -7 45 -44 11 -44
-11 0 -27 -11 -35 -24 -9 -13 -24 -23 -33 -21 -9 2 -23 4 -29 4 -9 1 -13 17
-13 46 0 44 0 45 34 45 18 0 48 -3 65 -6z m-733 -70 c14 -96 -20 -291 -50
-281 -14 5 -12 20 10 77 11 31 17 78 18 147 1 109 10 133 22 57z m1102 22 c6
-30 -12 -40 -51 -27 -34 12 -52 32 -39 45 3 4 24 6 47 4 29 -2 41 -8 43 -22z
m1042 -86 c0 -85 -15 -150 -34 -150 -11 0 -11 11 0 63 7 34 14 91 14 127 0 46
3 61 10 50 5 -8 10 -49 10 -90z m-1570 -62 c5 -16 5 -28 1 -28 -12 0 -52 97
-57 139 -4 32 -2 29 21 -24 15 -33 31 -72 35 -87z m232 136 c12 -12 -6 -46
-30 -55 -36 -14 -77 13 -62 41 8 15 21 20 49 20 21 0 40 -3 43 -6z m-572 -41
c0 -15 -6 -23 -17 -23 -36 0 -63 13 -63 29 0 13 9 16 40 16 35 0 40 -2 40 -22z
m747 16 c43 -6 79 -12 81 -14 2 -2 -3 -12 -10 -24 -9 -14 -24 -21 -48 -22 -30
-2 -31 -3 -7 -6 15 -2 27 -7 27 -10 0 -4 -16 -21 -35 -39 -24 -21 -50 -34 -80
-38 -43 -7 -45 -6 -45 19 0 18 7 28 25 35 14 5 28 17 31 25 4 8 14 15 23 16 9
0 -1 6 -22 12 -21 7 -38 15 -38 20 1 4 1 14 1 22 0 18 -2 18 97 4z m-477 -28
c0 -18 -6 -19 -77 -14 -46 3 -84 11 -93 19 -12 12 -1 14 78 14 84 0 92 -2 92
-19z m214 -4 c17 -8 13 -13 -33 -39 -29 -17 -55 -28 -58 -25 -3 3 -2 24 2 46
6 39 8 40 38 34 18 -3 41 -10 51 -16z m350 -29 c-15 -29 -29 -48 -31 -41 -4
10 44 93 53 93 3 0 -8 -24 -22 -52z m-485 -5 c12 -24 17 -43 12 -43 -8 0 -41
70 -41 87 0 10 6 1 29 -44z m-244 -37 c35 -47 110 -101 163 -116 20 -6 64 -14
97 -17 l60 -6 -26 29 c-14 16 -32 38 -40 49 -13 19 -13 19 7 5 57 -40 113 -86
114 -92 1 -24 -208 5 -270 37 -53 27 -110 86 -136 139 -13 28 -19 42 -12 32 7
-10 27 -37 43 -60z m785 67 c0 -14 -19 -38 -25 -32 -8 8 5 39 16 39 5 0 9 -3
9 -7z m-327 -57 c30 -30 26 -36 -27 -36 -37 0 -38 -1 -21 -14 19 -14 19 -15
-7 -26 -23 -11 -32 -9 -64 10 l-37 23 64 33 c35 18 65 33 66 34 1 0 13 -11 26
-24z m307 -12 c0 -19 -5 -24 -25 -24 -28 0 -28 0 -15 34 12 32 40 25 40 -10z
m155 15 c137 -14 170 -34 40 -25 -125 9 -175 17 -175 27 0 11 3 11 135 -2z
m392 -61 c-3 -8 -6 -5 -6 6 -1 11 2 17 5 13 3 -3 4 -12 1 -19z m-2389 -174
c75 -50 125 -66 214 -66 84 0 156 25 226 79 22 16 37 22 43 16 11 -11 -75 -73
-136 -99 -112 -46 -226 -37 -323 26 -57 37 -103 80 -86 80 5 0 33 -16 62 -36z
m2782 -8 c-71 -70 -228 -136 -325 -136 -97 0 -219 34 -295 82 -32 21 -33 23
-13 26 13 2 54 -12 92 -31 168 -84 326 -68 480 49 24 19 53 34 65 34 20 0 20
-1 -4 -24z m-120 -17 c-83 -56 -175 -77 -269 -60 -38 7 -77 18 -87 25 -14 11
-5 11 52 4 85 -12 176 -3 229 22 44 20 102 28 75 9z m687 -564 c93 -143 172
-265 176 -272 14 -23 -273 -183 -508 -283 -55 -24 -179 -69 -275 -101 -768
-254 -1645 -276 -2440 -63 -141 38 -342 106 -455 154 -203 86 -511 249 -522
276 -6 16 331 544 348 544 5 0 38 -18 74 -40 310 -190 733 -330 1192 -396 150
-21 623 -30 806 -15 503 43 1019 203 1383 430 27 16 49 29 50 28 1 -1 78 -119
171 -262z m-2377 205 c0 -13 -7 -20 -20 -20 -16 0 -20 -7 -20 -35 0 -24 5 -35
15 -35 8 0 15 -7 15 -15 0 -9 -7 -18 -15 -21 -9 -4 -15 -19 -15 -35 0 -22 5
-29 20 -29 14 0 20 -7 20 -21 0 -18 -5 -20 -42 -17 l-43 3 -3 109 c-1 61 0
116 2 123 3 8 22 13 46 13 33 0 40 -3 40 -20z m132 -3 c4 -7 8 -24 8 -39 0
-21 -5 -28 -20 -28 -13 0 -20 7 -20 19 0 26 -18 37 -27 16 -4 -12 6 -28 31
-51 29 -27 36 -40 36 -70 0 -64 -50 -95 -92 -57 -25 23 -24 73 1 73 12 0 21
-8 23 -22 4 -30 28 -36 28 -6 0 14 -14 38 -35 58 -43 41 -48 90 -12 115 23 17
66 12 79 -8z m148 3 c0 -11 -7 -20 -15 -20 -12 0 -15 -18 -15 -100 0 -83 -3
-102 -16 -107 -26 -10 -34 17 -29 97 5 84 0 110 -21 110 -8 0 -14 9 -14 20 0
18 7 20 55 20 48 0 55 -2 55 -20z m238 -88 c1 -57 7 -102 12 -102 6 0 10 -9
10 -20 0 -17 -7 -20 -45 -20 -38 0 -45 3 -45 20 0 11 5 20 10 20 14 0 12 126
-2 150 -10 16 -9 23 7 40 10 11 26 19 34 18 13 -3 17 -22 19 -106z m152 88
c17 -17 20 -33 20 -105 0 -72 -3 -88 -20 -105 -32 -32 -78 -21 -93 23 -5 13
-1 17 18 17 14 0 25 -4 25 -10 0 -15 17 -12 24 5 4 10 -5 19 -28 29 -25 10
-36 22 -41 45 -9 43 3 88 28 106 29 20 43 19 67 -5z m148 4 c20 -14 22 -23 22
-106 0 -98 -12 -128 -53 -128 -24 0 -57 27 -57 47 0 15 36 18 45 3 8 -13 25
-3 25 16 0 8 -8 14 -17 14 -34 0 -53 30 -53 86 0 43 4 56 22 68 12 9 27 16 33
16 6 0 21 -7 33 -16z m168 3 c3 -8 -9 -39 -26 -71 -23 -44 -30 -71 -30 -112 0
-47 -2 -54 -20 -54 -18 0 -20 7 -20 58 0 38 7 71 20 97 26 51 25 55 -10 55
-28 0 -40 17 -23 33 12 13 103 8 109 -6z m-656 -217 c0 -13 -7 -20 -20 -20
-13 0 -20 7 -20 20 0 13 7 20 20 20 13 0 20 -7 20 -20z"/>
<path d="M3094 4992 c-19 -3 -26 -19 -49 -115 -15 -62 -31 -117 -34 -124 -3
-7 -26 42 -50 108 -42 116 -45 119 -73 119 l-30 0 7 -157 c7 -190 11 -213 33
-213 38 0 44 14 38 91 l-6 74 27 -75 c25 -66 31 -75 55 -78 29 -3 26 -8 56
108 8 34 9 32 15 -30 8 -73 13 -82 45 -74 26 7 25 6 13 217 -5 77 -13 142 -17
146 -5 4 -19 5 -30 3z m-174 -152 c3 -40 0 -84 -5 -78 -3 2 -7 31 -10 63 -3
36 -1 55 4 49 5 -5 10 -20 11 -34z m180 30 c0 -5 -2 -10 -4 -10 -3 0 -8 5 -11
10 -3 6 -1 10 4 10 6 0 11 -4 11 -10z m9 -51 c15 -43 13 -49 -5 -19 l-15 25 6
-27 c4 -22 2 -26 -11 -21 -10 4 -14 13 -10 27 3 11 6 27 6 34 0 23 18 12 29
-19z m-159 -29 c0 -5 -2 -10 -4 -10 -3 0 -8 5 -11 10 -3 6 -1 10 4 10 6 0 11
-4 11 -10z m70 -94 c0 -3 -4 -8 -10 -11 -5 -3 -10 -1 -10 4 0 6 5 11 10 11 6
0 10 -2 10 -4z"/>
<path d="M3246 4967 c-21 -21 -24 -36 -30 -151 -7 -109 -5 -131 9 -152 33 -51
100 -53 137 -3 16 21 19 46 21 158 2 129 1 133 -22 152 -32 27 -86 25 -115 -4z
m74 -151 c0 -86 -3 -116 -14 -125 -25 -21 -31 10 -28 128 3 102 5 111 23 111
18 0 19 -8 19 -114z"/>
<path d="M3437 4983 c-4 -3 -7 -17 -7 -30 0 -16 6 -23 19 -23 11 0 22 -4 25
-9 3 -5 1 -72 -6 -151 -9 -120 -9 -143 3 -151 42 -27 49 -5 64 204 l7 97 29 0
c24 0 29 4 29 25 0 14 -6 27 -12 29 -28 9 -145 16 -151 9z"/>
<path d="M3683 4948 c-30 -14 -33 -25 -54 -163 -17 -113 -17 -122 -1 -149 22
-38 63 -52 103 -36 16 7 34 22 40 32 12 21 38 192 39 246 0 63 -66 100 -127
70z m61 -57 c8 -13 -23 -224 -34 -235 -7 -7 -14 -6 -22 2 -9 9 -9 34 1 109 7
54 14 106 17 116 6 18 29 23 38 8z"/>
<path d="M2530 4915 c-28 -30 -28 -49 -5 -190 11 -72 22 -106 37 -122 27 -29
76 -30 112 -2 22 17 26 28 26 70 0 36 -4 49 -14 49 -33 0 -46 -13 -46 -46 0
-26 -4 -34 -18 -34 -16 0 -21 15 -35 100 -22 129 -22 140 3 140 15 0 20 -7 20
-24 0 -31 12 -39 43 -27 20 8 24 15 19 38 -12 71 -94 99 -142 48z"/>
<path d="M3907 4924 c-7 -12 -67 -310 -67 -334 0 -19 32 -36 49 -26 5 4 12 25
16 49 10 61 17 70 38 54 16 -11 17 -18 7 -61 -11 -52 -5 -66 32 -66 12 0 20
15 28 56 7 31 10 64 7 74 -3 10 1 27 8 37 6 10 17 46 24 81 13 69 4 99 -38
121 -27 15 -98 25 -104 15z m79 -74 c8 -8 7 -27 -1 -63 -9 -41 -16 -52 -31
-52 -21 0 -21 -1 -10 73 8 50 21 63 42 42z"/>
<path d="M2363 4894 c-5 -14 59 -340 70 -350 2 -2 16 0 31 6 19 7 26 15 22 28
-2 9 -19 88 -38 175 -31 148 -34 157 -56 157 -12 0 -25 -7 -29 -16z"/>
<path d="M2183 4860 c-36 -15 -56 -55 -48 -97 9 -49 28 -69 88 -95 46 -20 67
-46 67 -84 0 -25 -39 -16 -46 11 -6 25 -28 32 -53 16 -20 -13 -5 -67 26 -91
35 -27 65 -25 102 6 24 20 31 34 31 61 0 61 -26 100 -86 128 -56 27 -84 59
-66 77 16 16 42 1 42 -22 0 -17 5 -21 28 -18 41 5 43 49 3 88 -30 31 -50 35
-88 20z"/>
<path d="M4156 4838 c-38 -34 -94 -245 -76 -287 14 -34 59 -56 95 -47 52 13
90 87 54 106 -28 16 -36 12 -48 -20 -6 -17 -17 -30 -27 -30 -21 0 -17 36 16
158 17 65 26 82 39 80 11 -2 16 -14 16 -38 0 -29 4 -36 24 -38 29 -5 41 12 41
60 0 69 -81 102 -134 56z"/>
<path d="M4366 4773 c-3 -21 -6 -70 -6 -108 0 -50 -7 -90 -25 -139 -26 -71
-25 -82 9 -88 22 -4 29 7 57 85 11 31 48 94 80 138 62 83 68 109 26 109 -17 0
-32 -12 -51 -40 -14 -22 -28 -40 -30 -40 -2 0 -1 23 2 51 5 53 -4 69 -39 69
-11 0 -18 -12 -23 -37z m53 -122 c-15 -5 -22 6 -14 19 6 9 10 9 16 -1 5 -8 4
-15 -2 -18z"/>
<path d="M1953 4788 c-28 -14 -47 -60 -38 -95 11 -49 33 -71 85 -88 53 -18 80
-45 80 -82 0 -33 -27 -29 -45 7 -13 25 -19 28 -38 21 -51 -20 0 -111 62 -111
16 0 40 9 55 21 21 16 26 29 26 63 0 63 -32 105 -99 131 -58 22 -88 59 -61 75
16 10 40 -5 40 -26 0 -18 13 -24 38 -17 30 7 28 44 -4 82 -27 33 -60 39 -101
19z"/>
<path d="M1724 4695 c-7 -18 0 -67 32 -233 13 -68 24 -126 24 -128 0 -2 8 -4
18 -4 23 0 42 19 42 41 0 23 57 44 77 28 18 -16 68 5 57 24 -12 19 -123 177
-167 235 -40 52 -72 67 -83 37z m81 -95 c3 -5 0 -10 -7 -11 -7 0 -4 -5 7 -10
18 -8 18 -8 -4 -6 -14 1 -25 9 -27 20 -2 18 21 24 31 7z m35 -95 c12 -19 19
-39 15 -45 -7 -12 -35 -14 -35 -2 0 4 -4 24 -9 45 -11 46 1 48 29 2z"/>
<path d="M4602 4679 c-33 -34 -114 -236 -106 -262 16 -53 66 -77 116 -56 37
15 64 64 47 85 -18 22 -45 17 -57 -11 -6 -14 -16 -25 -22 -25 -25 0 -19 37 21
130 33 77 47 100 61 100 17 0 19 -5 13 -39 -6 -34 -4 -39 17 -45 49 -13 69 81
25 122 -31 29 -89 30 -115 1z"/>
<path d="M4758 4470 c-43 -82 -78 -155 -78 -162 0 -7 24 -25 53 -41 48 -25 53
-26 64 -10 19 25 16 38 -12 51 -14 6 -25 16 -25 21 0 5 30 66 66 135 54 103
64 129 54 141 -28 34 -45 15 -122 -135z"/>
<path d="M1495 4586 c-18 -13 -18 -14 2 -47 11 -19 49 -89 83 -156 34 -68 67
-123 74 -123 23 0 106 51 106 65 0 23 -27 37 -49 26 -11 -6 -24 -11 -30 -11
-5 0 -40 59 -77 130 -37 72 -73 130 -79 130 -6 0 -20 -6 -30 -14z"/>
<path d="M4964 4477 c-17 -28 -56 -93 -87 -144 -32 -50 -57 -96 -57 -102 0
-10 64 -55 93 -67 7 -2 18 6 26 18 12 20 11 24 -14 44 l-28 22 22 36 c24 39
28 41 51 26 18 -11 40 5 40 31 0 10 -7 22 -17 27 -15 9 -14 13 7 46 16 27 27
35 39 30 42 -17 59 -16 66 6 4 12 5 23 3 24 -18 16 -90 56 -100 56 -7 0 -27
-24 -44 -53z"/>
<path d="M1339 4495 c-35 -19 -53 -63 -40 -97 14 -37 119 -200 139 -215 24
-20 79 -16 102 7 29 29 35 67 17 106 -19 38 -25 40 -52 20 -17 -12 -18 -17 -6
-39 14 -26 8 -47 -13 -47 -14 0 -126 174 -126 196 0 21 29 17 48 -6 16 -19 19
-20 40 -5 22 16 22 17 6 45 -17 27 -52 50 -77 50 -7 -1 -24 -7 -38 -15z"/>
<path d="M4372 3153 c20 -21 42 -51 47 -66 14 -37 14 -116 0 -156 -10 -27 -9
-36 4 -48 14 -14 17 -12 36 25 32 62 28 141 -9 220 -29 62 -29 62 -72 62 l-42
0 36 -37z"/>
<path d="M2685 3443 c4 -10 10 -26 12 -35 10 -35 33 -11 33 33 0 14 -7 19 -26
19 -21 0 -25 -3 -19 -17z"/>
<path d="M3336 3464 c-8 -8 -21 -14 -30 -14 -8 0 -17 -4 -21 -9 -3 -6 16 -11
42 -13 l48 -3 3 -53 c3 -45 0 -54 -15 -58 -10 -3 -23 -15 -28 -27 -7 -15 -19
-22 -37 -22 -23 1 -28 -3 -28 -25 0 -14 8 -33 18 -41 9 -9 24 -30 33 -47 11
-20 28 -32 49 -37 37 -8 48 -1 30 20 -10 12 -12 45 -7 139 7 136 12 156 35
156 14 0 14 2 2 14 -8 7 -30 18 -47 24 -26 9 -36 8 -47 -4z"/>
<path d="M4700 3470 c1 -8 7 -26 15 -40 l15 -25 -6 30 c-7 33 -24 58 -24 35z"/>
<path d="M3491 3286 c-21 -26 -9 -51 24 -51 27 0 30 3 30 30 0 23 -5 31 -21
33 -11 2 -26 -4 -33 -12z"/>
<path d="M1922 3259 c-28 -8 -32 -13 -26 -32 3 -12 7 -22 8 -22 0 0 33 1 73 3
62 3 72 6 77 25 3 11 3 24 0 29 -7 11 -90 9 -132 -3z"/>
<path d="M1808 3186 c-50 -51 -71 -100 -76 -174 -8 -113 38 -198 135 -249 121
-64 212 -54 303 35 l55 53 -24 13 c-22 12 -29 10 -78 -24 -109 -77 -204 -75
-281 7 -89 96 -89 215 -1 309 25 26 27 32 16 48 -13 17 -16 16 -49 -18z"/>
<path d="M4210 3236 c0 -9 5 -16 10 -16 6 0 10 4 10 9 0 6 -4 13 -10 16 -5 3
-10 -1 -10 -9z"/>
<path d="M4294 3255 c11 -8 27 -15 35 -15 10 1 7 6 -9 15 -33 19 -50 18 -26 0z"/>
<path d="M2160 3181 c-8 -16 -5 -30 15 -67 20 -38 25 -61 25 -119 0 -66 2 -74
24 -89 32 -20 37 -12 44 69 5 74 -12 137 -55 190 -32 40 -38 42 -53 16z"/>
<path d="M3967 3118 c-10 -21 -17 -63 -17 -98 0 -56 1 -60 23 -60 23 0 24 2
20 83 -6 112 -8 118 -26 75z"/>
<path d="M3550 3079 c0 -13 41 -22 52 -11 6 6 -1 11 -21 14 -17 3 -31 1 -31
-3z"/>
<path d="M1674 2034 c-42 -44 -45 -89 -8 -157 22 -43 24 -52 14 -83 -8 -24
-18 -34 -32 -34 -18 0 -19 4 -13 36 11 61 -42 78 -63 20 -16 -43 -7 -81 25
-106 48 -38 111 -15 137 50 22 55 20 78 -10 143 -20 46 -23 60 -14 77 6 12 19
20 28 18 17 -4 19 -15 7 -55 -6 -18 -2 -23 20 -29 34 -8 45 4 52 54 5 36 2 45
-25 72 -42 41 -76 40 -118 -6z"/>
<path d="M4553 2032 c-25 -9 -43 -23 -43 -32 0 -8 30 -90 67 -182 68 -168 77
-181 113 -158 15 9 11 30 -25 113 -6 13 -2 17 18 17 21 0 28 -8 43 -50 18 -50
33 -60 63 -41 13 8 13 15 1 52 -8 24 -25 58 -37 76 -13 19 -23 45 -23 58 0 37
-45 130 -71 149 -29 20 -51 19 -106 -2z m99 -106 c10 -27 17 -55 14 -63 -11
-28 -34 -11 -55 43 -26 69 -26 76 0 72 15 -2 27 -18 41 -52z"/>
<path d="M1834 1828 c-32 -95 -59 -177 -59 -183 0 -14 101 -49 120 -41 27 10
18 50 -15 63 l-29 11 15 46 c14 42 18 45 41 40 42 -11 63 48 22 61 -21 7 -21
21 1 79 8 23 11 24 40 13 33 -13 50 -1 50 35 0 16 -73 48 -110 48 -12 0 -31
-43 -76 -172z"/>
<path d="M4411 1979 c-12 -5 -21 -15 -19 -22 3 -6 31 -90 62 -184 33 -99 63
-173 70 -173 7 0 20 6 29 13 16 11 13 25 -38 178 -31 92 -61 173 -68 182 -9
11 -18 13 -36 6z"/>
<path d="M2065 1917 c-24 -59 -97 -336 -90 -347 3 -5 17 -10 30 -10 20 0 26 8
40 55 9 33 21 55 30 55 24 0 26 -18 11 -71 -18 -59 -15 -69 20 -69 29 0 42 28
51 105 3 28 10 55 15 62 12 15 48 132 48 155 0 29 -43 68 -93 83 l-48 14 -14
-32z m81 -62 c9 -22 -16 -116 -33 -122 -34 -13 -33 30 2 125 6 17 24 15 31 -3z"/>
<path d="M4230 1921 c-12 -8 -12 -35 -1 -203 6 -106 14 -194 15 -196 11 -11
55 13 58 31 4 28 64 45 85 24 16 -16 63 -11 63 7 0 6 -25 58 -55 116 -30 58
-69 133 -87 168 -32 61 -48 71 -78 53z m70 -123 c0 -5 -4 -6 -10 -3 -5 3 -10
1 -10 -5 0 -6 -4 -9 -10 -5 -14 9 0 34 16 28 8 -3 14 -9 14 -15z m25 -98 c16
-36 17 -43 4 -51 -8 -5 -17 -9 -20 -9 -8 0 -19 52 -19 87 0 32 13 23 35 -27z"/>
<path d="M2255 1718 c-4 -95 -6 -184 -4 -197 5 -28 52 -47 67 -28 5 7 41 88
81 182 73 175 74 184 24 185 -16 0 -25 -9 -33 -36 -7 -20 -25 -64 -41 -98
l-28 -61 -3 110 -3 110 -26 3 -27 3 -7 -173z m68 -90 c-2 -5 1 -8 6 -8 6 0 3
-9 -6 -20 -16 -19 -18 -19 -24 -3 -3 10 -2 21 3 24 5 3 5 14 1 24 -6 17 -5 18
9 5 9 -8 14 -18 11 -22z"/>
<path d="M4002 1871 c-18 -5 -36 -11 -39 -14 -3 -4 9 -73 27 -154 52 -240 47
-225 78 -221 29 3 31 11 18 85 -7 39 -6 44 16 52 34 13 59 45 60 77 1 51 -22
141 -41 158 -23 21 -75 28 -119 17z m87 -111 c15 -70 14 -80 -8 -80 -22 0 -27
11 -37 83 -6 43 -4 47 14 47 16 0 22 -10 31 -50z"/>
<path d="M3838 1837 c-46 -7 -58 -13 -58 -27 0 -18 46 -303 56 -349 5 -21 8
-23 52 -16 77 10 83 14 80 43 -3 24 -7 27 -39 25 -34 -2 -37 1 -43 29 -10 51
-7 64 18 76 18 8 22 16 19 36 -4 20 -11 26 -33 26 -24 0 -28 5 -34 38 -9 58
-8 61 26 64 36 3 47 24 26 49 -11 13 -23 14 -70 6z"/>
<path d="M2506 1823 c-10 -34 -56 -316 -56 -345 0 -24 4 -28 28 -28 l28 0 29
178 c16 97 29 184 29 192 1 23 -51 26 -58 3z"/>
<path d="M2653 1795 c-27 -19 -38 -59 -53 -198 -11 -96 -10 -110 5 -133 46
-71 139 -42 159 49 5 22 2 29 -16 36 -32 12 -46 4 -50 -27 -2 -17 -10 -28 -22
-30 -18 -4 -19 1 -12 78 11 132 18 171 33 177 20 8 27 -3 28 -40 0 -29 3 -32
30 -32 28 0 30 3 33 42 3 35 -2 48 -22 68 -29 29 -80 33 -113 10z"/>
<path d="M3572 1799 c-19 -7 -23 -14 -18 -36 3 -16 13 -98 22 -183 9 -85 19
-159 24 -163 4 -5 18 -7 31 -5 23 3 24 6 21 70 -4 63 -3 66 17 61 16 -4 21
-16 27 -65 6 -56 8 -59 33 -56 25 3 26 5 25 71 0 37 -6 73 -11 78 -6 6 -9 26
-6 45 10 59 -6 144 -32 170 -26 26 -87 32 -133 13z m84 -57 c6 -4 14 -33 18
-65 6 -48 5 -58 -9 -63 -23 -9 -28 0 -36 64 -8 70 -2 84 27 64z"/>
<path d="M2850 1788 c-1 -7 -7 -94 -15 -193 -7 -99 -11 -182 -9 -185 3 -2 34
-6 69 -8 l65 -4 0 30 c0 27 -4 31 -32 34 -37 3 -44 19 -33 74 5 28 10 34 30
34 21 0 25 5 25 30 0 26 -4 30 -26 30 -25 0 -26 2 -20 38 3 20 6 43 6 50 0 7
14 12 35 12 32 0 35 3 35 29 0 26 -3 29 -46 35 -67 9 -84 8 -84 -6z"/>
<path d="M3230 1783 c-74 -21 -96 -81 -58 -160 9 -17 6 -27 -11 -49 -15 -19
-21 -41 -21 -79 0 -48 3 -56 32 -80 29 -24 37 -26 83 -21 62 8 72 8 111 0 46
-9 49 8 12 60 -26 37 -30 50 -22 68 18 41 7 58 -37 58 -21 0 -39 2 -39 5 0 3
9 18 20 33 18 25 25 59 21 104 -2 34 -57 70 -91 61z m25 -98 c0 -43 -29 -40
-33 3 -3 28 0 33 15 30 13 -2 18 -12 18 -33z m-20 -95 c3 -5 1 -10 -4 -10 -6
0 -11 5 -11 10 0 6 2 10 4 10 3 0 8 -4 11 -10z m19 -78 c32 -47 32 -49 0 -55
-41 -8 -66 31 -48 77 9 24 19 20 48 -22z m71 19 c10 -17 -9 -20 -30 -5 -18 14
-18 14 2 14 12 0 24 -4 28 -9z"/>
<path d="M3370 2266 c0 -45 12 -61 24 -30 10 26 7 51 -9 64 -13 11 -15 6 -15
-34z"/>
<path d="M3522 2263 c2 -21 8 -38 13 -38 6 0 11 17 13 38 3 29 0 37 -13 37
-13 0 -16 -8 -13 -37z"/>
</g>
</svg>
