<?xml version="1.0" standalone="no"?>
<!DOCTYPE svg PUBLIC "-//W3C//DTD SVG 20010904//EN"
 "http://www.w3.org/TR/2001/REC-SVG-20010904/DTD/svg10.dtd">
<svg version="1.0" xmlns="http://www.w3.org/2000/svg"
 width="240.000000pt" height="160.000000pt" viewBox="0 0 240.000000 160.000000"
 preserveAspectRatio="xMidYMid meet">
<metadata>
Created by potrace 1.16, written by Peter Selinger 2001-2019
</metadata>
<g transform="translate(0.000000,160.000000) scale(0.100000,-0.100000)"
fill="#000000" stroke="none">
<path d="M1167 1212 c-22 -24 -37 -67 -39 -113 -1 -37 -3 -39 -32 -39 -17 0
-48 -3 -68 -6 -37 -6 -38 -6 -38 24 0 17 5 34 12 38 17 11 -21 23 -52 17 -42
-9 -44 -15 -11 -29 23 -10 31 -19 31 -39 0 -23 -3 -25 -49 -25 -58 0 -81 -7
-81 -26 0 -7 -8 -18 -17 -24 -16 -10 -15 -11 4 -7 13 3 26 1 29 -4 3 -5 12 -9
21 -9 8 0 38 -12 67 -26 28 -14 66 -26 84 -27 28 -1 32 -4 28 -22 -3 -11 -6
-26 -6 -32 0 -9 -12 -11 -43 -7 -51 7 -66 -6 -74 -66 l-6 -41 141 2 c122 1
141 3 145 17 4 14 5 13 7 -3 l1 -20 9 20 9 20 0 -20 c1 -17 3 -17 11 -5 6 10
10 11 10 3 0 -10 31 -13 120 -13 131 0 127 -2 109 62 -11 41 -38 55 -83 44
-17 -4 -26 -1 -30 10 -13 34 -6 49 22 50 23 1 103 32 164 65 10 5 25 6 35 2
16 -6 17 -5 3 13 -27 36 -44 44 -97 44 -50 0 -53 1 -53 26 0 19 7 28 31 36 46
16 18 32 -50 29 -20 -1 -22 -3 -10 -17 7 -8 13 -27 14 -40 1 -25 0 -25 -65
-18 -36 3 -66 8 -68 9 -2 2 -5 23 -6 47 -4 50 -28 103 -51 112 -30 11 -62 6
-78 -12z"/>
<path d="M180 1101 c0 -18 53 -72 89 -91 56 -28 133 -48 295 -75 82 -13 154
-29 159 -34 5 -5 -8 -6 -34 -1 -24 5 -97 16 -162 25 -65 8 -142 25 -170 35
-64 25 -64 25 -42 0 33 -36 122 -61 255 -71 157 -11 219 -19 224 -28 3 -4 -18
-4 -47 0 -29 4 -95 8 -147 9 -52 0 -115 5 -139 11 -59 13 -64 4 -10 -21 38
-17 66 -20 207 -20 89 0 162 -3 162 -7 0 -5 -79 -8 -175 -8 -173 0 -176 0
-153 -19 24 -19 65 -19 283 -1 51 4 46 2 -35 -15 -52 -10 -122 -19 -155 -19
-54 -1 -58 -2 -43 -17 28 -28 95 -28 177 0 41 14 84 26 95 26 32 0 -144 -60
-182 -62 -41 -2 -41 -11 2 -37 51 -32 80 -27 133 22 47 42 49 38 6 -19 -13
-17 -23 -40 -23 -51 0 -28 31 -53 66 -53 35 -1 56 -15 77 -55 l16 -30 1 30 c0
20 -10 43 -30 65 -37 44 -37 73 -3 170 26 74 26 76 9 112 -25 53 -75 73 -231
93 -252 32 -367 64 -442 121 -18 14 -33 21 -33 15z"/>
<path d="M2210 1085 c-45 -48 -197 -90 -433 -120 -143 -18 -198 -35 -227 -73
-27 -33 -25 -76 5 -150 32 -79 31 -100 -5 -144 -17 -20 -33 -51 -35 -70 -5
-30 -4 -31 7 -14 31 47 58 66 92 66 61 0 75 58 29 119 l-27 36 42 -37 c48 -44
81 -48 130 -18 41 25 41 40 -1 40 -33 0 -206 59 -176 60 9 0 51 -11 93 -25 90
-30 126 -31 169 -8 l32 18 -80 7 c-44 4 -114 14 -155 22 -69 14 -71 15 -20 11
208 -18 246 -18 278 -1 18 9 32 18 32 19 0 1 -81 2 -179 2 -99 0 -177 3 -174
8 2 4 75 7 163 6 163 0 209 8 239 45 13 15 12 16 -15 5 -16 -6 -97 -15 -181
-19 -84 -5 -162 -12 -175 -15 -17 -5 -20 -4 -12 4 5 6 71 16 145 22 178 14
274 33 322 65 21 14 37 27 35 30 -3 2 -30 -5 -62 -17 -53 -18 -162 -37 -311
-54 -108 -12 -53 3 107 30 230 38 354 86 373 146 10 31 1 32 -25 4z"/>
<path d="M918 525 c5 -53 -8 -58 -31 -12 l-16 32 0 -42 -1 -43 340 0 c371 0
356 -2 347 57 l-4 28 -14 -32 c-7 -18 -17 -33 -21 -33 -12 0 -19 37 -12 64 l6
26 -298 0 -299 0 3 -45z"/>
</g>
</svg>
